<svg width="25" height="24" viewBox="0 0 25 24" fill="none" xmlns="http://www.w3.org/2000/svg">
<mask id="mask0_503_32022" style="mask-type:alpha" maskUnits="userSpaceOnUse" x="2" y="3" width="21" height="18">
<path fill-rule="evenodd" clip-rule="evenodd" d="M23 3H2V21H23V3ZM9.75 12C9.75 12.6904 9.19036 13.25 8.5 13.25C7.80964 13.25 7.25 12.6904 7.25 12C7.25 11.3096 7.80964 10.75 8.5 10.75C9.19036 10.75 9.75 11.3096 9.75 12ZM13.75 12C13.75 12.6904 13.1904 13.25 12.5 13.25C11.8096 13.25 11.25 12.6904 11.25 12C11.25 11.3096 11.8096 10.75 12.5 10.75C13.1904 10.75 13.75 11.3096 13.75 12ZM16.5 13.25C17.1904 13.25 17.75 12.6904 17.75 12C17.75 11.3096 17.1904 10.75 16.5 10.75C15.8096 10.75 15.25 11.3096 15.25 12C15.25 12.6904 15.8096 13.25 16.5 13.25Z" fill="#D9D9D9"/>
</mask>
<g mask="url(#mask0_503_32022)">
<path d="M3.25 10.75C3.25 7.43629 5.93629 4.75 9.25 4.75H15.75C19.0637 4.75 21.75 7.43629 21.75 10.75V13.25C21.75 16.5637 19.0637 19.25 15.75 19.25H3.25V10.75Z" fill="#121331" stroke="#121331" stroke-width="1.5" stroke-linejoin="round"/>
</g>
</svg>
