<svg xmlns="http://www.w3.org/2000/svg" fill="#C1C1C1" viewBox="0 0 64 64"><title>patient</title><g id="patient"><path d="M51.67,60H12.33l.06-.23A16.31,16.31,0,0,1,27.1,48c0,.14.07.28.11.42s.09.27.14.4a3.52,3.52,0,0,0,.18.39,3.9,3.9,0,0,0,.19.35l0,0,.19.29a3.47,3.47,0,0,0,.3.37l.29.3.3.28h0a4.72,4.72,0,0,0,.69.48l.37.19.38.16,0,0,.35.11.11,0,.33.06a2.63,2.63,0,0,0,.39.06,4.35,4.35,0,0,0,1,0,2.63,2.63,0,0,0,.39-.06l.33-.06.11,0,.35-.11,0,0,.38-.16.37-.19a4.72,4.72,0,0,0,.69-.48h0l.3-.28.29-.3a3.47,3.47,0,0,0,.3-.37l.19-.29s0,0,0,0a3.9,3.9,0,0,0,.19-.35,3.52,3.52,0,0,0,.18-.39c.05-.13.1-.26.14-.4s.08-.28.11-.42A16.31,16.31,0,0,1,51.61,59.77Z"/><path d="M27.11,48h0c0,.14.07.28.11.42C27.17,48.3,27.14,48.16,27.11,48Zm9.78,0c0,.14-.06.28-.1.42,0-.14.08-.28.11-.42Z"/><path d="M35,41.7V47a3,3,0,0,1-6,0V41.7l.74.13h.12a8,8,0,0,0,.84.1l.36,0c.31,0,.63,0,.94,0s.63,0,.94,0l.36,0a8,8,0,0,0,.84-.1h.12Z"/><path d="M47,13v7.94c-.27,0-.54-.07-.8-.12A9,9,0,0,1,39,12v-.53A1,1,0,0,0,37.1,11a17.33,17.33,0,0,1-3.38,4.69A17.81,17.81,0,0,1,21,21H17V15A11,11,0,0,1,28,4H38a9,9,0,0,1,9,9Z"/><path d="M43.63,22.1l-.3-.14a5.28,5.28,0,0,1-.53-.27l-.49-.28-.09-.06-.07,0a.27.27,0,0,1-.1-.06l-.4-.28-.06,0-.25-.18q-.23-.16-.45-.36l-.07-.06c-.21-.18-.41-.36-.6-.55a11,11,0,0,1-2.92-5.2,20.06,20.06,0,0,1-2.16,2.56A19.83,19.83,0,0,1,21,23H19v4a12.81,12.81,0,0,0,.54,3.71c.1.33.21.66.34,1a1,1,0,0,1-.12,1A3.92,3.92,0,0,0,19,35a4,4,0,0,0,4,4,4.08,4.08,0,0,0,2-.5.91.91,0,0,1,.48-.13,1,1,0,0,1,.47.12,12.38,12.38,0,0,0,2.38,1,13,13,0,0,0,16.17-8.75A12.81,12.81,0,0,0,45,27V22.58A11.12,11.12,0,0,1,43.63,22.1ZM28,35.5a1,1,0,0,1-1-1A3.5,3.5,0,0,0,23.5,31a1,1,0,0,1,0-2A5.51,5.51,0,0,1,29,34.5,1,1,0,0,1,28,35.5Z"/><path d="M17.3,30A3.5,3.5,0,0,1,14,26.5,3.45,3.45,0,0,1,15,24a3.4,3.4,0,0,1,2-1v4c0,.31,0,.63,0,.94l0,.36a8,8,0,0,0,.1.84A8.36,8.36,0,0,0,17.3,30Z"/><path d="M50,26.5A3.45,3.45,0,0,1,49,29a3.4,3.4,0,0,1-2.27,1,4.89,4.89,0,0,0,.09-.53,1.92,1.92,0,0,0,.05-.32A13.92,13.92,0,0,0,47,27V23A3.5,3.5,0,0,1,50,26.5Z"/><path d="M15,38H13a1,1,0,0,1,0-2h2a1,1,0,0,1,0,2Z"/><path d="M15,43a1,1,0,0,1-.71-.29,1,1,0,0,1,0-1.42l1.5-1.5a1,1,0,0,1,1.42,1.42l-1.5,1.5A1,1,0,0,1,15,43Z"/><path d="M20,45a1,1,0,0,1-1-1V42a1,1,0,0,1,2,0v2A1,1,0,0,1,20,45Z"/></g></svg>